<?xml version="1.0" encoding="utf-8"?>
<!-- Generator: Adobe Illustrator 25.2.3, SVG Export Plug-In . SVG Version: 6.00 Build 0)  -->
<svg version="1.1" xmlns="http://www.w3.org/2000/svg" xmlns:xlink="http://www.w3.org/1999/xlink" x="0px" y="0px"
	 viewBox="0 0 256 256" style="enable-background:new 0 0 256 256;" xml:space="preserve">
<style type="text/css">
	.st0{fill:#FFFFFF;}
	.st1{fill:none;stroke:#000000;stroke-width:15;stroke-miterlimit:10;}
	.st2{stroke:#000000;stroke-width:5;stroke-miterlimit:10;}
</style>
<g id="Layer_1">
	<g>
		<path class="st0" d="M44.9,251.5c-22.3,0-40.4-18.1-40.4-40.4V44.9c0-22.3,18.1-40.4,40.4-40.4h166.2c22.3,0,40.4,18.1,40.4,40.4
			v166.2c0,22.3-18.1,40.4-40.4,40.4H44.9z"/>
		<path d="M211.1,9C230.9,9,247,25.1,247,44.9v166.2c0,19.8-16.1,35.9-35.9,35.9H44.9C25.1,247,9,230.9,9,211.1V44.9
			C9,25.1,25.1,9,44.9,9H211.1 M211.1,0H44.9C20.1,0,0,20.1,0,44.9v166.2C0,235.9,20.1,256,44.9,256h166.2
			c24.8,0,44.9-20.1,44.9-44.9V44.9C256,20.1,235.9,0,211.1,0L211.1,0z"/>
	</g>
</g>
<g id="Layer_2">
	<line class="st1" x1="118.9" y1="56" x2="212.4" y2="56"/>
	<polygon class="st2" points="228,56.5 186.2,39 186.2,73.6 	"/>
	<line class="st1" x1="139.1" y1="199" x2="45.6" y2="199"/>
	<polygon class="st2" points="30,198.9 71.8,181.4 71.8,216 	"/>
	<line class="st1" x1="139.1" y1="103" x2="45.6" y2="103"/>
	<polygon class="st2" points="30,103.3 71.8,85.8 71.8,120.4 	"/>
	<line class="st1" x1="118.9" y1="151.5" x2="212.4" y2="151.5"/>
	<polygon class="st2" points="228,151.1 186.2,133.6 186.2,168.2 	"/>
</g>
</svg>
