<?xml version="1.0" encoding="utf-8"?>
<!-- Generator: Adobe Illustrator 25.2.3, SVG Export Plug-In . SVG Version: 6.00 Build 0)  -->
<svg version="1.1" xmlns="http://www.w3.org/2000/svg" xmlns:xlink="http://www.w3.org/1999/xlink" x="0px" y="0px"
	 viewBox="0 0 512 256" style="enable-background:new 0 0 512 256;" xml:space="preserve">
<style type="text/css">
	.st0{fill:#FFFFFF;}
	.st1{fill:none;stroke:#000000;stroke-width:10;stroke-miterlimit:10;}
	.st2{fill:#FFFFFF;stroke:#000000;stroke-width:9;stroke-miterlimit:10;}
	.st3{fill:none;stroke:#000000;stroke-width:15;stroke-miterlimit:10;}
	.st4{stroke:#000000;stroke-width:5;stroke-miterlimit:10;}
</style>
<g id="Layer_2">
	<g>
		<path class="st0" d="M5,242c0,5,4,9,9,9h484c5,0,9-4,9-9V14c0-5-4-9-9-9H14c-5,0-9,4-9,9V242z"/>
		<path class="st1" d="M5,242c0,5,4,9,9,9h484c5,0,9-4,9-9V14c0-5-4-9-9-9H14c-5,0-9,4-9,9V242z"/>
	</g>
	<path class="st2" d="M460-29"/>
</g>
<g id="Layer_1">
	<g id="Layer_2_1_">
		<line class="st3" x1="242.7" y1="57" x2="365.5" y2="57"/>
		<polygon class="st4" points="386,57.5 331.1,40 331.1,74.6 		"/>
		<line class="st3" x1="269.3" y1="200" x2="146.5" y2="200"/>
		<polygon class="st4" points="126,199.9 180.9,182.4 180.9,217 		"/>
		<line class="st3" x1="269.3" y1="104" x2="146.5" y2="104"/>
		<polygon class="st4" points="126,104.3 180.9,86.8 180.9,121.4 		"/>
		<line class="st3" x1="242.7" y1="152.5" x2="365.5" y2="152.5"/>
		<polygon class="st4" points="386,152.1 331.1,134.6 331.1,169.2 		"/>
	</g>
</g>
</svg>
